<?xml version="1.0" encoding="UTF-8" standalone="no"?>
<svg
   width="71.12mm"
   height="128.5mm"
   viewBox="0 0 71.12 128.5"
   version="1.1"
   xmlns="http://www.w3.org/2000/svg">
  
  <!-- Panel Background - Dark Blue -->
  <rect
     style="fill:#1A365D;stroke-width:0.264583"
     width="71.12"
     height="128.5"
     x="0"
     y="0" />
  
  <!-- Mounting Screws -->
  <circle cx="7.62" cy="3.0" r="1.6" fill="#C0C0C0" stroke="#808080" stroke-width="0.1"/>
  <circle cx="63.5" cy="3.0" r="1.6" fill="#C0C0C0" stroke="#808080" stroke-width="0.1"/>
  <circle cx="7.62" cy="125.5" r="1.6" fill="#C0C0C0" stroke="#808080" stroke-width="0.1"/>
  <circle cx="63.5" cy="125.5" r="1.6" fill="#C0C0C0" stroke="#808080" stroke-width="0.1"/>
  
  
  <!-- OLED Display Area (larger) -->
  <rect
     x="8.0"
     y="8.0"
     width="55.12"
     height="15.0"
     fill="#000000"
     stroke="#404040" 
     stroke-width="0.2" />
  
  <!-- Module Name - nt_emu (as paths) -->
  <g fill="#E2E8F0">
    <!-- n -->
    <rect x="25" y="22" width="1.5" height="6"/>
    <rect x="25" y="22" width="4" height="1.5"/>
    <rect x="27.5" y="22" width="1.5" height="6"/>
    
    <!-- t -->
    <rect x="31" y="20" width="1.5" height="8"/>
    <rect x="29.5" y="24" width="4" height="1.5"/>
    
    <!-- _ -->
    <rect x="36" y="27" width="4" height="1"/>
    
    <!-- e -->
    <rect x="42" y="22" width="4" height="1.5"/>
    <rect x="42" y="22" width="1.5" height="6"/>
    <rect x="42" y="24.5" width="3" height="1"/>
    <rect x="42" y="26.5" width="4" height="1.5"/>
    
    <!-- m -->
    <rect x="48" y="22" width="1.5" height="6"/>
    <rect x="48" y="22" width="2" height="1.5"/>
    <rect x="50" y="22" width="1.5" height="6"/>
    <rect x="50" y="22" width="2" height="1.5"/>
    <rect x="52" y="22" width="1.5" height="6"/>
    
    <!-- u -->
    <rect x="55" y="22" width="1.5" height="5"/>
    <rect x="55" y="26" width="4" height="1.5"/>
    <rect x="57.5" y="22" width="1.5" height="5"/>
  </g>
  
  <!-- Version text - simplified -->
  <g fill="#CBD5E0" transform="translate(10.0, 18.0)">
    <path d="M0,-1 L1,1 L2,-1 L3,-1 L2,1 L4,1 L4,0 L6,0 L6,1 L7,1 L7,0 L8,0 L8,1 L9,1"/>
  </g>
  
  <!-- USB-C Socket (left edge) - much smaller -->
  <rect x="3.0" y="37.0" width="4.0" height="6.0" fill="#2A2A2A" stroke="#404040" stroke-width="0.1"/>
  <rect x="3.2" y="38.0" width="3.6" height="4.0" fill="#1A1A1A"/>
  <!-- USB label as path -->
  <g fill="#CBD5E0" transform="translate(5.0, 46.0)">
    <path d="M-1.5,-0.5 L-1.5,0.5 L-1,0.5 L-1,0 L-0.5,0 L-0.5,0.5 L0,0.5 L0,-0.5 Z M0.5,-0.5 L0.5,0.5 L1,0.5 L1,0 L1.5,0 L1.5,-0.5 Z"/>
  </g>
  
  <!-- Pot Center Markers (Large knobs - 3/4 radius) -->
  <circle cx="17.78" cy="35.0" r="0.6" fill="#808080" opacity="0.3"/>
  <circle cx="35.56" cy="35.0" r="0.6" fill="#808080" opacity="0.3"/>
  <circle cx="53.34" cy="35.0" r="0.6" fill="#808080" opacity="0.3"/>
  
  <!-- Encoder Center Markers (Infinite encoders - no position lines) -->
  <circle cx="26.67" cy="52.0" r="0.5" fill="#404040" opacity="0.4"/>
  <circle cx="44.45" cy="52.0" r="0.5" fill="#404040" opacity="0.4"/>
  
  <!-- Button Center Markers (vertical pairs - much smaller like hardware) -->
  <circle cx="14.5" cy="48.0" r="0.1" fill="#606060" opacity="0.4"/>
  <circle cx="14.5" cy="56.0" r="0.1" fill="#606060" opacity="0.4"/>
  <circle cx="56.5" cy="48.0" r="0.1" fill="#606060" opacity="0.4"/>
  <circle cx="56.5" cy="56.0" r="0.1" fill="#606060" opacity="0.4"/>
  
  <!-- Input Row Background Strips (white with opacity) -->
  <rect x="5" y="68" width="40" height="5" fill="#FFFFFF" opacity="0.1" rx="0.5"/>
  <rect x="5" y="78" width="40" height="5" fill="#FFFFFF" opacity="0.1" rx="0.5"/>
  <rect x="5" y="88" width="40" height="5" fill="#FFFFFF" opacity="0.1" rx="0.5"/>
  
  <!-- Input Jack Centers (3 rows x 4 columns) - balanced margins -->
  <!-- Row 1 (Inputs 1-4) -->
  <circle cx="10.0" cy="70.0" r="0.4" fill="#606060" opacity="0.5"/>
  <circle cx="19.0" cy="70.0" r="0.4" fill="#606060" opacity="0.5"/>
  <circle cx="28.0" cy="70.0" r="0.4" fill="#606060" opacity="0.5"/>
  <circle cx="37.0" cy="70.0" r="0.4" fill="#606060" opacity="0.5"/>
  
  <!-- Row 2 (Inputs 5-8) -->
  <circle cx="10.0" cy="80.0" r="0.4" fill="#606060" opacity="0.5"/>
  <circle cx="19.0" cy="80.0" r="0.4" fill="#606060" opacity="0.5"/>
  <circle cx="28.0" cy="80.0" r="0.4" fill="#606060" opacity="0.5"/>
  <circle cx="37.0" cy="80.0" r="0.4" fill="#606060" opacity="0.5"/>
  
  <!-- Row 3 (Inputs 9-12) -->
  <circle cx="10.0" cy="90.0" r="0.4" fill="#606060" opacity="0.5"/>
  <circle cx="19.0" cy="90.0" r="0.4" fill="#606060" opacity="0.5"/>
  <circle cx="28.0" cy="90.0" r="0.4" fill="#606060" opacity="0.5"/>
  <circle cx="37.0" cy="90.0" r="0.4" fill="#606060" opacity="0.5"/>
  
  <!-- Output Jack Centers (4 rows x 2 columns) - balanced margins -->
  <!-- Row 1 (Outputs 1-2) -->
  <circle cx="55.0" cy="70.0" r="0.4" fill="#606060" opacity="0.5"/>
  <circle cx="64.0" cy="70.0" r="0.4" fill="#606060" opacity="0.5"/>
  
  <!-- Row 2 (Outputs 3-4) -->
  <circle cx="55.0" cy="80.0" r="0.4" fill="#606060" opacity="0.5"/>
  <circle cx="64.0" cy="80.0" r="0.4" fill="#606060" opacity="0.5"/>
  
  <!-- Row 3 (Outputs 5-6) -->
  <circle cx="55.0" cy="90.0" r="0.4" fill="#606060" opacity="0.5"/>
  <circle cx="64.0" cy="90.0" r="0.4" fill="#606060" opacity="0.5"/>
  
  <!-- Row 4 (Outputs 7-8) - NEW -->
  <circle cx="55.0" cy="100.0" r="0.4" fill="#606060" opacity="0.5"/>
  <circle cx="64.0" cy="100.0" r="0.4" fill="#606060" opacity="0.5"/>
  
  <!-- Input Labels (1-12) as simple rectangles -->
  <g fill="#E2E8F0">
    <!-- Row 1 -->
    <!-- 1 --> <rect x="9.5" y="65.5" width="1" height="3"/>
    <!-- 2 --> 
    <rect x="18.5" y="65.5" width="1.5" height="0.5"/>
    <rect x="19.5" y="66" width="0.5" height="1"/>
    <rect x="18.5" y="67" width="1.5" height="0.5"/>
    <rect x="18.5" y="67.5" width="0.5" height="1"/>
    <rect x="18.5" y="68" width="1.5" height="0.5"/>
    <!-- 3 -->
    <rect x="27.5" y="65.5" width="1.5" height="0.5"/>
    <rect x="27.5" y="66.5" width="1.5" height="0.5"/>
    <rect x="29" y="65.5" width="0.5" height="1.5"/>
    <rect x="27.5" y="68" width="1.5" height="0.5"/>
    <!-- 4 -->
    <rect x="36" y="65.5" width="0.5" height="1.5"/>
    <rect x="37" y="65.5" width="0.5" height="3"/>
    <rect x="36" y="67" width="1.5" height="0.5"/>
    
    <!-- Row 2 -->
    <!-- 5 -->
    <rect x="9.5" y="75.5" width="1.5" height="0.5"/>
    <rect x="9.5" y="75.5" width="0.5" height="1.5"/>
    <rect x="9.5" y="77" width="1.5" height="0.5"/>
    <rect x="10.5" y="77" width="0.5" height="1.5"/>
    <rect x="9.5" y="78" width="1.5" height="0.5"/>
    <!-- 6 -->
    <rect x="18.5" y="75.5" width="1.5" height="0.5"/>
    <rect x="18.5" y="75.5" width="0.5" height="3"/>
    <rect x="18.5" y="77" width="1.5" height="0.5"/>
    <rect x="19.5" y="77" width="0.5" height="1.5"/>
    <rect x="18.5" y="78" width="1.5" height="0.5"/>
    <!-- 7 -->
    <rect x="27.5" y="75.5" width="1.5" height="0.5"/>
    <rect x="29" y="76" width="0.5" height="2.5"/>
    <!-- 8 -->
    <rect x="36.5" y="75.5" width="1" height="0.5"/>
    <rect x="36.5" y="77" width="1" height="0.5"/>
    <rect x="36.5" y="78" width="1" height="0.5"/>
    <rect x="36.5" y="75.5" width="0.5" height="1.5"/>
    <rect x="37" y="75.5" width="0.5" height="1.5"/>
    <rect x="36.5" y="77.5" width="0.5" height="1"/>
    <rect x="37" y="77.5" width="0.5" height="1"/>
    
    <!-- Row 3 -->
    <!-- 9 -->
    <rect x="9.5" y="85.5" width="1.5" height="0.5"/>
    <rect x="9.5" y="85.5" width="0.5" height="1.5"/>
    <rect x="9.5" y="87" width="1.5" height="0.5"/>
    <rect x="10.5" y="85.5" width="0.5" height="3"/>
    <rect x="9.5" y="88" width="1.5" height="0.5"/>
    <!-- 10 -->
    <rect x="18.5" y="85.5" width="0.5" height="3"/>
    <rect x="20" y="85.5" width="1" height="0.5"/>
    <rect x="20" y="85.5" width="0.5" height="3"/>
    <rect x="20.5" y="85.5" width="0.5" height="3"/>
    <rect x="20" y="88" width="1" height="0.5"/>
    <!-- 11 -->
    <rect x="27.5" y="85.5" width="0.5" height="3"/>
    <rect x="29" y="85.5" width="0.5" height="3"/>
    <!-- 12 -->
    <rect x="36.5" y="85.5" width="0.5" height="3"/>
    <rect x="38.5" y="85.5" width="1" height="0.5"/>
    <rect x="39" y="86" width="0.5" height="1"/>
    <rect x="38.5" y="87" width="1" height="0.5"/>
    <rect x="38.5" y="87.5" width="0.5" height="1"/>
    <rect x="38.5" y="88" width="1" height="0.5"/>
  </g>
  
  <!-- Output Labels (1-8) as simple rectangles -->
  <g fill="#E2E8F0">
    <!-- Row 1 -->
    <!-- 1 --> <rect x="54.5" y="65.5" width="1" height="3"/>
    <!-- 2 --> 
    <rect x="63.5" y="65.5" width="1.5" height="0.5"/>
    <rect x="64.5" y="66" width="0.5" height="1"/>
    <rect x="63.5" y="67" width="1.5" height="0.5"/>
    <rect x="63.5" y="67.5" width="0.5" height="1"/>
    <rect x="63.5" y="68" width="1.5" height="0.5"/>
    
    <!-- Row 2 -->
    <!-- 3 -->
    <rect x="54.5" y="75.5" width="1.5" height="0.5"/>
    <rect x="54.5" y="76.5" width="1.5" height="0.5"/>
    <rect x="55.5" y="75.5" width="0.5" height="1.5"/>
    <rect x="54.5" y="78" width="1.5" height="0.5"/>
    <!-- 4 -->
    <rect x="63.5" y="75.5" width="0.5" height="1.5"/>
    <rect x="64.5" y="75.5" width="0.5" height="3"/>
    <rect x="63.5" y="77" width="1.5" height="0.5"/>
    
    <!-- Row 3 -->
    <!-- 5 -->
    <rect x="54.5" y="85.5" width="1.5" height="0.5"/>
    <rect x="54.5" y="85.5" width="0.5" height="1.5"/>
    <rect x="54.5" y="87" width="1.5" height="0.5"/>
    <rect x="55.5" y="87" width="0.5" height="1.5"/>
    <rect x="54.5" y="88" width="1.5" height="0.5"/>
    <!-- 6 -->
    <rect x="63.5" y="85.5" width="1.5" height="0.5"/>
    <rect x="63.5" y="85.5" width="0.5" height="3"/>
    <rect x="63.5" y="87" width="1.5" height="0.5"/>
    <rect x="64.5" y="87" width="0.5" height="1.5"/>
    <rect x="63.5" y="88" width="1.5" height="0.5"/>
    
    <!-- Row 4 (NEW) -->
    <!-- 7 -->
    <rect x="54.5" y="95.5" width="1.5" height="0.5"/>
    <rect x="55.5" y="96" width="0.5" height="2.5"/>
    <!-- 8 -->
    <rect x="63.5" y="95.5" width="1" height="0.5"/>
    <rect x="63.5" y="97" width="1" height="0.5"/>
    <rect x="63.5" y="98" width="1" height="0.5"/>
    <rect x="63.5" y="95.5" width="0.5" height="1.5"/>
    <rect x="64" y="95.5" width="0.5" height="1.5"/>
    <rect x="63.5" y="97.5" width="0.5" height="1"/>
    <rect x="64" y="97.5" width="0.5" height="1"/>
  </g>
  
  <!-- Bottom Branding - No Such Device (as paths) -->
  <g fill="#CBD5E0">
    <!-- No Such Device -->
    <!-- N -->
    <rect x="6" y="116" width="1" height="4"/>
    <rect x="6" y="116" width="3" height="1"/>
    <rect x="8" y="116" width="1" height="4"/>
    
    <!-- o -->
    <rect x="11" y="116" width="2" height="1"/>
    <rect x="11" y="116" width="1" height="4"/>
    <rect x="12" y="119" width="2" height="1"/>
    <rect x="13" y="116" width="1" height="4"/>
    
    <!-- S -->
    <rect x="16" y="116" width="2" height="1"/>
    <rect x="16" y="116" width="1" height="2"/>
    <rect x="16" y="117.5" width="2" height="1"/>
    <rect x="17" y="117.5" width="1" height="2"/>
    <rect x="16" y="119" width="2" height="1"/>
    
    <!-- u -->
    <rect x="20" y="116" width="1" height="3"/>
    <rect x="20" y="119" width="2" height="1"/>
    <rect x="22" y="116" width="1" height="3"/>
    
    <!-- c -->
    <rect x="25" y="116" width="2" height="1"/>
    <rect x="25" y="116" width="1" height="4"/>
    <rect x="25" y="119" width="2" height="1"/>
    
    <!-- h -->
    <rect x="29" y="115" width="1" height="5"/>
    <rect x="29" y="117" width="2" height="1"/>
    <rect x="31" y="117" width="1" height="3"/>
    
    <!-- D -->
    <rect x="35" y="116" width="1" height="4"/>
    <rect x="35" y="116" width="2" height="1"/>
    <rect x="37" y="116" width="1" height="2"/>
    <rect x="36" y="118" width="1" height="1"/>
    <rect x="35" y="119" width="2" height="1"/>
    
    <!-- e -->
    <rect x="40" y="116" width="2" height="1"/>
    <rect x="40" y="116" width="1" height="4"/>
    <rect x="40" y="117.5" width="2" height="1"/>
    <rect x="40" y="119" width="2" height="1"/>
    
    <!-- v -->
    <rect x="44" y="116" width="1" height="2"/>
    <rect x="45" y="118" width="1" height="1"/>
    <rect x="46" y="119" width="1" height="1"/>
    <rect x="47" y="118" width="1" height="1"/>
    <rect x="48" y="116" width="1" height="2"/>
    
    <!-- i -->
    <rect x="51" y="114.5" width="1" height="1"/>
    <rect x="51" y="116" width="1" height="4"/>
    
    <!-- c -->
    <rect x="54" y="116" width="2" height="1"/>
    <rect x="54" y="116" width="1" height="4"/>
    <rect x="54" y="119" width="2" height="1"/>
    
    <!-- e -->
    <rect x="58" y="116" width="2" height="1"/>
    <rect x="58" y="116" width="1" height="4"/>
    <rect x="58" y="117.5" width="2" height="1"/>
    <rect x="58" y="119" width="2" height="1"/>
  </g>
  
</svg>